<svg width="131" height="82" viewBox="0 0 131 82" fill="none" xmlns="http://www.w3.org/2000/svg">
<g clip-path="url(#clip0_18_598)">
<path d="M15.24 77.66H6.74998V4.34H15.24V-0.410004H0.47998V82.41H15.24V77.66Z" fill="#9A8461"/>
<path d="M116.36 4.34H124.85V77.66H116.36V82.41H131.12V-0.410004H116.36V4.34Z" fill="#9A8461"/>
<path d="M80.3198 39.86C80.2398 39.51 80.1098 38.56 79.9198 36.99C79.7598 35.69 79.6098 34.61 79.4898 33.76C79.3098 34.78 79.0498 35.79 78.7098 36.81C78.3698 37.83 77.9498 38.86 77.4398 39.92L65.7598 63.7L54.0798 39.43C53.5898 38.43 53.1698 37.47 52.8098 36.53C52.4498 35.59 52.1398 34.67 51.8798 33.75C51.8598 34.69 51.7798 35.67 51.6498 36.69C51.5198 37.72 51.3198 38.79 51.0598 39.91L46.2698 61.89H39.5898L50.1398 15.36L63.3098 43.53C63.5098 43.98 63.8198 44.72 64.2398 45.76C64.6598 46.8 65.1598 48.08 65.7498 49.6C66.1798 48.32 66.8498 46.69 67.7598 44.72C67.9998 44.19 68.1898 43.78 68.3098 43.5L81.1798 15.36L91.9698 61.89H85.2298L80.2898 39.84L80.3198 39.86Z" fill="#FFFFFD"/>
</g>
<defs>
<clipPath id="clip0_18_598">
<rect width="131" height="82" fill="white"/>
</clipPath>
</defs>
</svg>
