<svg width="20" height="20" viewBox="0 0 20 20" fill="none" xmlns="http://www.w3.org/2000/svg">
<path fill-rule="evenodd" clip-rule="evenodd" d="M8.6701 18.6703C3.88752 18.6703 0 14.7823 0 10.0002C0 5.21806 3.88752 1.33008 8.6701 1.33008C10.863 1.33008 12.9212 2.12641 14.5244 3.59634C13.9901 3.91318 13.4749 4.26136 12.9816 4.63904C11.7611 3.65331 10.239 3.11679 8.6701 3.11928C4.87993 3.11928 1.7892 6.21001 1.7892 10.0002C1.7892 13.7903 4.87993 16.8806 8.6701 16.8806C13.9436 16.8806 17.0744 11.2436 14.8063 6.861C15.2525 6.44595 15.7145 6.04826 16.1914 5.66882C16.9503 6.97911 17.3402 8.46519 17.3402 9.99971C17.3402 14.7823 13.4527 18.6703 8.6701 18.6703Z" fill="#9A8461"/>
<path fill-rule="evenodd" clip-rule="evenodd" d="M8.89788 14.457C8.85207 14.4563 8.8075 14.4421 8.76981 14.416C8.73211 14.39 8.70298 14.3534 8.68611 14.3108C8.66996 14.2785 7.27108 10.6669 5.10771 9.30028C4.68463 9.04006 4.35936 8.7637 4.48947 8.14546C4.61958 7.54384 5.02605 7.20196 5.75824 7.03956C7.05931 6.76273 8.45865 8.77985 8.97862 9.6094C10.801 6.95835 14.4445 2.79401 19.7475 2.30588C20.0031 2.27589 20.0981 2.65514 19.8615 2.76126C19.7802 2.79355 12.1999 6.25845 9.12533 14.3269C9.10235 14.3668 9.06918 14.3999 9.02921 14.4228C8.98925 14.4456 8.94392 14.4574 8.89788 14.457Z" fill="#9A8461"/>
</svg>
