<svg width="32" height="32" viewBox="0 0 32 32" fill="none" xmlns="http://www.w3.org/2000/svg">
<path d="M27.7367 15.1429C27.6484 15.143 27.5636 15.1076 27.5006 15.0445C27.4375 14.9815 27.4012 14.8956 27.3993 14.8055C27.393 14.4857 27.2585 14.392 27.2144 14.3622C27.1014 14.3038 26.9775 14.2709 26.8509 14.2657C26.7244 14.2605 26.5982 14.2831 26.481 14.3321C25.6155 14.6628 25.0415 13.9129 24.858 13.4695C24.8232 13.3853 24.8226 13.2904 24.8563 13.2058C24.8901 13.1211 24.9553 13.0536 25.0378 13.018C25.0787 13.0005 25.1225 12.9913 25.1668 12.991C25.2111 12.9907 25.255 12.9993 25.2961 13.0164C25.379 13.0508 25.4451 13.1175 25.4799 13.2017C25.5082 13.269 25.7768 13.866 26.2446 13.6871C26.4625 13.5982 26.6973 13.5615 26.9312 13.5796C27.1652 13.5978 27.3919 13.6704 27.5941 13.7918C27.7498 13.904 27.8755 14.0543 27.9596 14.2289C28.0436 14.4036 28.0834 14.597 28.0752 14.7915C28.077 14.8828 28.0432 14.9712 27.9813 15.0371C27.9193 15.103 27.8342 15.1411 27.7448 15.1429H27.7367ZM26.8964 11.1222C26.4361 11.101 25.9964 10.921 25.6493 10.6115C25.582 10.5516 25.5407 10.4668 25.5346 10.3758C25.5284 10.2848 25.5578 10.1951 25.6163 10.1262C25.6748 10.0573 25.7577 10.0149 25.8468 10.0083C25.9358 10.0018 26.0238 10.0315 26.0914 10.091C26.1697 10.1599 26.8786 10.7501 27.3838 10.2015C27.7039 9.85375 28.2985 9.47933 28.9207 9.56823C29.148 9.60576 29.3626 9.70099 29.5446 9.84519C29.7265 9.98939 29.8702 10.1779 29.9623 10.3936C30.0034 10.4747 30.0113 10.5693 29.9841 10.6564C29.957 10.7435 29.8971 10.816 29.8176 10.858C29.7381 10.9 29.6456 10.9081 29.5603 10.8804C29.475 10.8527 29.404 10.7915 29.3628 10.7103C29.3184 10.5941 29.2461 10.4911 29.1525 10.4108C29.0589 10.3305 28.9471 10.2755 28.8273 10.2509C28.6482 10.2472 28.4705 10.283 28.3062 10.3559C28.1419 10.4288 27.995 10.5371 27.8755 10.6733C27.7528 10.8148 27.602 10.928 27.4332 11.0053C27.2644 11.0827 27.0814 11.1226 26.8964 11.1222ZM4.49856 19.0661C4.38603 19.1463 4.30342 19.2631 4.26421 19.3974C4.225 19.5317 4.2315 19.6756 4.28264 19.8057C4.52565 20.4191 4.87201 20.9843 5.30601 21.4757C5.39925 21.579 5.52389 21.6473 5.65979 21.6694C5.7957 21.6914 5.93492 21.6661 6.05498 21.5974L6.66225 21.2471C5.94817 20.5174 5.40467 19.6323 5.07232 18.6581L4.49856 19.0661Z" fill="#9A8461"/>
<path d="M15.2338 15.5309C13.9518 14.1642 14.2712 9.81815 14.4196 7.50502C14.4891 6.4346 13.9743 2.46071 12.4449 2.7019C11.3225 2.87877 12.3144 6.21408 12.2987 7.02724C12.2739 8.31818 12.3639 10.1581 11.6487 12.5677C11.6402 12.613 11.6202 12.6552 11.5907 12.69C11.5612 12.7249 11.5232 12.7512 11.4806 12.7664C11.4379 12.7815 11.3922 12.7849 11.3478 12.7762C11.3035 12.7676 11.2622 12.7472 11.2281 12.717C10.8547 12.4506 10.3756 12.2255 9.99551 12.2852C9.75592 12.306 9.52961 12.4064 9.35127 12.5711C9.17293 12.7358 9.05239 12.9557 9.00813 13.1971V13.1994C8.97889 13.436 8.94965 13.8219 8.9474 14.0011C8.94681 14.0921 8.911 14.1791 8.8478 14.2432C8.78459 14.3073 8.69912 14.3433 8.61003 14.3433H8.60553C8.56123 14.3427 8.51747 14.3332 8.47676 14.3154C8.43605 14.2975 8.39919 14.2716 8.36828 14.2392C8.33737 14.2067 8.31301 14.1684 8.29661 14.1264C8.2802 14.0844 8.27206 14.0394 8.27265 13.9942C8.27423 13.807 8.30009 13.4617 8.32956 13.1971C8.33254 13.1707 8.33032 13.144 8.32302 13.1185C8.31572 13.093 8.30349 13.0692 8.28705 13.0486C8.27062 13.028 8.25031 13.011 8.22732 12.9985C8.20434 12.9861 8.17914 12.9785 8.15322 12.9761C7.88411 12.9601 7.6153 13.0124 7.37074 13.1282C7.25673 13.1808 7.15722 13.2614 7.0811 13.3628C7.00497 13.4642 6.95457 13.5832 6.9344 13.7093C6.9052 14.0224 6.91426 14.338 6.96139 14.6488C6.96953 14.6933 6.969 14.739 6.95984 14.7833C6.95067 14.8276 6.93306 14.8696 6.90799 14.9069C6.88293 14.9443 6.85091 14.9762 6.81376 15.0009C6.77661 15.0256 6.73506 15.0425 6.69149 15.0508C6.67135 15.0535 6.65107 15.055 6.63076 15.0554C6.55175 15.0553 6.47527 15.0269 6.4145 14.9754C6.35374 14.9238 6.3125 14.8522 6.29789 14.7729C6.26035 14.4406 6.25087 14.1056 6.26955 13.7716C6.28053 13.59 6.23605 13.4094 6.14225 13.2548C5.8069 12.6989 5.03768 11.3863 4.96413 10.9207C4.85392 10.2362 3.61688 8.49964 2.47206 8.56166C1.05958 8.63976 3.23228 10.7485 3.59439 12.1956C3.72934 12.7377 4.80894 14.9199 5.52193 16.8333C5.6705 17.2298 5.82798 17.6227 5.99425 18.0117L5.63618 18.2584C5.90271 19.1841 6.8071 20.4188 7.25558 20.9062L7.31316 20.8734C7.56057 21.3953 7.81135 21.936 8.06798 22.5162C9.09585 24.8454 9.31402 27.5307 9.31402 29.5429C9.31405 29.6031 9.32572 29.6627 9.34836 29.7183C9.37101 29.7739 9.40418 29.8244 9.44597 29.8669C9.48777 29.9093 9.53736 29.943 9.59191 29.9658C9.64646 29.9886 9.70489 30.0003 9.76385 30H15.2136C15.2803 30 15.3462 29.9849 15.4064 29.9557C15.4667 29.9265 15.5199 29.8839 15.5621 29.8312C15.6043 29.7784 15.6345 29.7167 15.6504 29.6506C15.6664 29.5844 15.6678 29.5155 15.6544 29.4487C15.0224 26.1754 13.9136 23.2651 15.0471 21.6962C16.5046 19.6794 19.5702 17.5845 22.2332 17.9635C22.4118 17.9906 22.5941 17.9598 22.7547 17.8756C22.9153 17.7913 23.0459 17.6578 23.1283 17.4938C23.2107 17.3298 23.2407 17.1435 23.2141 16.9612C23.1875 16.7789 23.1056 16.6096 22.9799 16.4773C21.356 14.7798 16.5698 16.9597 15.2338 15.5309ZM29.0608 4.75224C28.3426 4.37507 27.7974 4.50531 27.4668 4.68126C26.8314 5.01916 26.4623 5.80176 26.3782 6.42702C26.2365 7.48366 24.9113 7.37432 24.8555 7.36881C24.7669 7.36097 24.6789 7.38917 24.6106 7.44725C24.5423 7.50534 24.4991 7.58862 24.4906 7.679C24.4821 7.76938 24.5088 7.85955 24.565 7.9299C24.6212 8.00025 24.7023 8.04511 24.7907 8.05471C24.8611 8.0616 24.9381 8.0655 25.0202 8.0655C25.7545 8.0655 26.8813 7.75356 27.0469 6.51982C27.1054 6.08453 27.3591 5.51394 27.7785 5.29113C27.934 5.21981 28.1045 5.1891 28.2745 5.20177C28.4445 5.21444 28.6087 5.27009 28.7524 5.36372C28.7919 5.38523 28.8352 5.3985 28.8797 5.40277C28.9243 5.40704 28.9692 5.40221 29.0119 5.38858C29.0546 5.37494 29.0942 5.35277 29.1285 5.32334C29.1627 5.29392 29.1909 5.25784 29.2113 5.2172C29.2318 5.17656 29.2441 5.13216 29.2476 5.08661C29.2511 5.04105 29.2457 4.99524 29.2316 4.95185C29.2176 4.90845 29.1953 4.86833 29.166 4.83383C29.1367 4.79932 29.1009 4.77112 29.0608 4.75086V4.75224ZM19.3748 4.22323C19.8192 4.45294 19.5698 5.05959 19.5405 5.12643C19.5214 5.16764 19.5104 5.21232 19.5083 5.25788C19.5062 5.30344 19.513 5.34898 19.5282 5.39185C19.5435 5.43471 19.5669 5.47406 19.5972 5.50761C19.6274 5.54116 19.6639 5.56824 19.7045 5.58727C19.7451 5.60631 19.789 5.61693 19.8336 5.61851C19.8782 5.62009 19.9227 5.61261 19.9645 5.59649C20.0063 5.58038 20.0445 5.55595 20.077 5.52462C20.1095 5.4933 20.1355 5.45571 20.1536 5.41402C20.3502 4.97758 20.5043 4.03694 19.6813 3.609C19.5668 3.55371 19.4653 3.47398 19.3836 3.37519C19.3019 3.2764 19.2419 3.16085 19.2076 3.03635C19.2 2.9826 19.1764 2.81836 19.4031 2.59738C19.4359 2.56635 19.4624 2.52895 19.4809 2.48737C19.4995 2.4458 19.5097 2.40087 19.5111 2.3552C19.5125 2.30954 19.505 2.26405 19.489 2.22138C19.473 2.17871 19.4488 2.13972 19.418 2.10667C19.3871 2.07362 19.3501 2.04717 19.3091 2.02887C19.2681 2.01056 19.2239 2.00076 19.1792 2.00004C19.1345 1.99932 19.0901 2.00769 19.0485 2.02467C19.007 2.04165 18.9692 2.06689 18.9373 2.09893C18.7913 2.22408 18.6785 2.38467 18.6091 2.56596C18.5397 2.74724 18.516 2.94342 18.5401 3.1365C18.5891 3.37056 18.6898 3.59011 18.8344 3.77843C18.979 3.96675 19.1638 4.11888 19.3748 4.22323ZM24.5757 2.31347C24.5664 2.2226 24.5222 2.13921 24.4528 2.08149C24.3834 2.02378 24.2945 1.99644 24.2055 2.00544C23.9755 2.01363 23.7511 2.08063 23.553 2.2003C23.3549 2.31997 23.1893 2.48848 23.0715 2.69041C22.762 3.24906 22.8844 3.95126 23.0832 4.38288C23.3981 5.06372 22.5985 5.52038 22.5076 5.56953C22.4682 5.59041 22.4333 5.619 22.4047 5.65367C22.3762 5.68834 22.3546 5.72842 22.3412 5.77161C22.3278 5.81481 22.3229 5.86027 22.3267 5.90541C22.3305 5.95055 22.343 5.99447 22.3634 6.03468C22.3839 6.07489 22.4119 6.1106 22.4458 6.13976C22.4798 6.16892 22.519 6.19097 22.5613 6.20464C22.6036 6.21831 22.6481 6.22334 22.6923 6.21945C22.7365 6.21555 22.7795 6.2028 22.8189 6.18192C23.3297 5.91041 24.17 5.12413 23.6938 4.09023C23.6137 3.92663 23.5691 3.74728 23.563 3.56445C23.5569 3.38161 23.5896 3.1996 23.6587 3.03084C23.7253 2.92615 23.8165 2.84017 23.924 2.78078C24.0315 2.72139 24.1519 2.69048 24.2741 2.69087C24.3631 2.68165 24.4449 2.63672 24.5014 2.56595C24.558 2.49517 24.5847 2.40436 24.5757 2.31347Z" fill="#9A8461"/>
<path d="M16.8957 15.3563L18.731 14.2997C19.2443 14.5679 19.8142 14.7034 20.3906 14.6942C20.9671 14.685 21.5325 14.5314 22.0373 14.2469C20.1699 12.3891 18.7634 10.103 17.9348 7.57853C17.4652 7.91775 17.0842 8.3695 16.8254 8.89416C16.5666 9.41881 16.4378 10.0003 16.4504 10.5877L14.9592 11.6466C14.9997 13.119 15.1886 14.4857 15.7194 15.0554C15.8973 15.2438 16.2932 15.3471 16.8957 15.3563ZM18.5151 7.19952C18.6312 7.57853 19.5722 9.89556 20.3653 11.1059C21.0536 12.0822 21.8069 13.0089 22.6201 13.8793C24.3182 12.5815 24.5499 10.0639 23.6367 8.57315C22.7235 7.08237 20.4002 6.198 18.5151 7.19952Z" fill="#9A8461"/>
</svg>
