<svg width="32" height="32" viewBox="0 0 32 32" fill="none" xmlns="http://www.w3.org/2000/svg">
<rect x="0.5" y="0.5" width="31" height="31" rx="15.5" stroke="#EFEFEF" stroke-opacity="0.12"/>
<path fill-rule="evenodd" clip-rule="evenodd" d="M16.0002 10.6667C16.5702 10.6667 17.1548 10.6813 17.7215 10.7053L18.3908 10.7373L19.0315 10.7753L19.6315 10.816L20.1795 10.8587C20.7743 10.9039 21.334 11.1576 21.7601 11.5751C22.1862 11.9925 22.4514 12.5469 22.5088 13.1407L22.5355 13.424L22.5855 14.0307C22.6322 14.6593 22.6668 15.3447 22.6668 16C22.6668 16.6553 22.6322 17.3407 22.5855 17.9693L22.5355 18.576L22.5088 18.8593C22.4513 19.4532 22.1861 20.0077 21.7599 20.4251C21.3336 20.8426 20.7737 21.0962 20.1788 21.1413L19.6322 21.1833L19.0322 21.2247L18.3908 21.2627L17.7215 21.2947C17.148 21.3195 16.5741 21.3324 16.0002 21.3333C15.4262 21.3324 14.8523 21.3195 14.2788 21.2947L13.6095 21.2627L12.9688 21.2247L12.3688 21.1833L11.8208 21.1413C11.226 21.0961 10.6663 20.8424 10.2402 20.4249C9.81409 20.0075 9.54896 19.4531 9.4915 18.8593L9.46483 18.576L9.41483 17.9693C9.36405 17.3141 9.33692 16.6572 9.3335 16C9.3335 15.3447 9.36816 14.6593 9.41483 14.0307L9.46483 13.424L9.4915 13.1407C9.54893 12.547 9.81397 11.9927 10.2399 11.5753C10.6659 11.1578 11.2255 10.9041 11.8202 10.8587L12.3675 10.816L12.9675 10.7753L13.6088 10.7373L14.2782 10.7053C14.8518 10.6805 15.426 10.6676 16.0002 10.6667ZM14.6668 14.3833V17.6167C14.6668 17.9247 15.0002 18.1167 15.2668 17.9633L18.0668 16.3467C18.1278 16.3116 18.1784 16.2611 18.2136 16.2002C18.2487 16.1394 18.2673 16.0703 18.2673 16C18.2673 15.9297 18.2487 15.8606 18.2136 15.7998C18.1784 15.7389 18.1278 15.6884 18.0668 15.6533L15.2668 14.0373C15.206 14.0022 15.137 13.9837 15.0668 13.9837C14.9965 13.9837 14.9275 14.0022 14.8667 14.0374C14.8059 14.0725 14.7554 14.1231 14.7203 14.1839C14.6852 14.2447 14.6668 14.3138 14.6668 14.384V14.3833Z" fill="#EFEFEF"/>
</svg>
