<svg width="32" height="32" viewBox="0 0 32 32" fill="none" xmlns="http://www.w3.org/2000/svg">
<rect x="0.5" y="0.5" width="31" height="31" rx="15.5" stroke="#EFEFEF" stroke-opacity="0.12"/>
<path d="M16.6854 9.33334C17.4354 9.33534 17.8161 9.33934 18.1447 9.34868L18.2741 9.35334C18.4234 9.35868 18.5707 9.36534 18.7487 9.37334C19.4581 9.40668 19.9421 9.51868 20.3667 9.68334C20.8067 9.85268 21.1774 10.082 21.5481 10.452C21.8872 10.7852 22.1495 11.1883 22.3167 11.6333C22.4814 12.058 22.5934 12.542 22.6267 13.252C22.6347 13.4293 22.6414 13.5767 22.6467 13.7267L22.6507 13.856C22.6607 14.184 22.6647 14.5647 22.6661 15.3147L22.6667 15.812V16.6853C22.6683 17.1716 22.6632 17.6579 22.6514 18.144L22.6474 18.2733C22.6421 18.4233 22.6354 18.5707 22.6274 18.748C22.5941 19.458 22.4807 19.9413 22.3167 20.3667C22.1495 20.8117 21.8872 21.2149 21.5481 21.548C21.2149 21.8871 20.8117 22.1495 20.3667 22.3167C19.9421 22.4813 19.4581 22.5933 18.7487 22.6267L18.2741 22.6467L18.1447 22.6507C17.8161 22.66 17.4354 22.6647 16.6854 22.666L16.1881 22.6667H15.3154C14.8289 22.6684 14.3424 22.6633 13.8561 22.6513L13.7267 22.6473C13.5685 22.6414 13.4102 22.6345 13.2521 22.6267C12.5427 22.5933 12.0587 22.4813 11.6334 22.3167C11.1886 22.1494 10.7857 21.8871 10.4527 21.548C10.1134 21.2149 9.85079 20.8118 9.68339 20.3667C9.51872 19.942 9.40672 19.458 9.37339 18.748L9.35339 18.2733L9.35005 18.144C9.33776 17.6579 9.33221 17.1716 9.33339 16.6853V15.3147C9.33154 14.8284 9.33643 14.3421 9.34805 13.856L9.35272 13.7267C9.35805 13.5767 9.36472 13.4293 9.37272 13.252C9.40605 12.542 9.51805 12.0587 9.68272 11.6333C9.85052 11.1881 10.1135 10.785 10.4534 10.452C10.7862 10.113 11.1888 9.85073 11.6334 9.68334C12.0587 9.51868 12.5421 9.40668 13.2521 9.37334C13.4294 9.36534 13.5774 9.35868 13.7267 9.35334L13.8561 9.34934C14.3422 9.3375 14.8285 9.33239 15.3147 9.33401L16.6854 9.33334ZM16.0001 12.6667C15.116 12.6667 14.2682 13.0179 13.643 13.643C13.0179 14.2681 12.6667 15.116 12.6667 16C12.6667 16.8841 13.0179 17.7319 13.643 18.357C14.2682 18.9822 15.116 19.3333 16.0001 19.3333C16.8841 19.3333 17.732 18.9822 18.3571 18.357C18.9822 17.7319 19.3334 16.8841 19.3334 16C19.3334 15.116 18.9822 14.2681 18.3571 13.643C17.732 13.0179 16.8841 12.6667 16.0001 12.6667ZM16.0001 14C16.2627 14 16.5228 14.0517 16.7654 14.1521C17.0081 14.2526 17.2286 14.3999 17.4144 14.5856C17.6001 14.7712 17.7475 14.9917 17.848 15.2343C17.9486 15.477 18.0003 15.737 18.0004 15.9997C18.0004 16.2623 17.9487 16.5224 17.8483 16.7651C17.7478 17.0077 17.6005 17.2282 17.4148 17.414C17.2292 17.5997 17.0087 17.7471 16.7661 17.8476C16.5234 17.9482 16.2634 18 16.0007 18C15.4703 18 14.9616 17.7893 14.5865 17.4142C14.2114 17.0392 14.0007 16.5304 14.0007 16C14.0007 15.4696 14.2114 14.9609 14.5865 14.5858C14.9616 14.2107 15.4703 14 16.0007 14M19.5007 11.6667C19.2797 11.6667 19.0677 11.7545 18.9115 11.9108C18.7552 12.067 18.6674 12.279 18.6674 12.5C18.6674 12.721 18.7552 12.933 18.9115 13.0893C19.0677 13.2455 19.2797 13.3333 19.5007 13.3333C19.7217 13.3333 19.9337 13.2455 20.09 13.0893C20.2463 12.933 20.3341 12.721 20.3341 12.5C20.3341 12.279 20.2463 12.067 20.09 11.9108C19.9337 11.7545 19.7217 11.6667 19.5007 11.6667Z" fill="#EFEFEF"/>
</svg>
