<svg width="64" height="64" viewBox="0 0 64 64" fill="none" xmlns="http://www.w3.org/2000/svg">
<rect width="64" height="64" rx="32" fill="#FFFFFD" fill-opacity="0.75"/>
<rect x="0.5" y="0.5" width="63" height="63" rx="31.5" stroke="#FFFFFD" stroke-opacity="0.5"/>
<path d="M27.5 21.0001C27.7761 21.0001 28 20.7762 28 20.5V18.5C28 18.2239 27.7761 18 27.5 18C27.2238 18 27 18.2239 27 18.5V20.5C27 20.7762 27.2238 21.0001 27.5 21.0001ZM22.5 21.0001C22.7762 21.0001 23 20.7762 23 20.5V18.5C23 18.2239 22.7762 18 22.5 18C22.2238 18 22 18.2239 22 18.5V20.5C22 20.7762 22.2238 21.0001 22.5 21.0001ZM26.0165 38.036C25.7703 37.9968 25.5436 37.8788 25.3704 37.6996C25.1971 37.5204 25.0868 37.2898 25.056 37.0425C24.982 36.3521 24.982 35.6558 25.056 34.9654C25.0855 34.7167 25.1955 34.4845 25.3691 34.304C25.5428 34.1235 25.7706 34.0046 26.018 33.9654L27.0794 33.7914C27.2994 32.8983 27.6534 32.0438 28.1294 31.2568L27.5 30.3788C27.3529 30.1771 27.2755 29.933 27.2794 29.6835C27.2832 29.4339 27.3682 29.1923 27.5215 28.9953C27.7417 28.7234 27.9773 28.4644 28.227 28.2193C28.477 27.9693 28.7355 27.7343 28.9875 27.5282C29.1846 27.3729 29.4272 27.2863 29.6782 27.2817C29.9292 27.2771 30.1747 27.3547 30.3775 27.5028L31.254 28.1308C32.0407 27.6537 32.8953 27.2989 33.7885 27.0783L33.9625 26.0162C34.0017 25.77 34.1198 25.5432 34.2991 25.37C34.4784 25.1967 34.7091 25.0865 34.9565 25.0557C35.6467 24.9817 36.3428 24.9817 37.033 25.0557C37.2816 25.0859 37.5136 25.1961 37.694 25.3698C37.8744 25.5434 37.9934 25.771 38.033 26.0183L38.207 27.0793C39.1002 27.2999 39.9548 27.6548 40.7415 28.1318L41.6215 27.5003C41.7361 27.4192 41.8643 27.3595 42 27.3238V24.0002H18V40.5006C18 41.329 18.6716 42.0007 19.5 42.0007H27.3245C27.3601 41.8617 27.4221 41.7308 27.507 41.6152L28.1305 40.7447C27.6543 39.9578 27.3003 39.1032 27.0805 38.2101L26.0165 38.036ZM32.5 21.0001C32.7761 21.0001 33 20.7762 33 20.5V18.5C33 18.2239 32.7761 18 32.5 18C32.2238 18 32 18.2239 32 18.5V20.5C32 20.7762 32.2238 21.0001 32.5 21.0001ZM37.5 21.0001C37.7761 21.0001 38 20.7762 38 20.5V18.5C38 18.2239 37.7761 18 37.5 18C37.2238 18 37 18.2239 37 18.5V20.5C37 20.7762 37.2238 21.0001 37.5 21.0001Z" fill="#9A8461"/>
<path d="M41.9999 21.5001C41.9999 20.6717 41.3284 20 40.4999 20H38.9999V20.5C38.9999 21.3285 38.3283 22.0001 37.4999 22.0001C36.6715 22.0001 35.9999 21.3285 35.9999 20.5V20H33.9999V20.5C33.9999 21.3285 33.3283 22.0001 32.4999 22.0001C31.6714 22.0001 30.9999 21.3285 30.9999 20.5V20H28.9999V20.5C28.9999 21.3285 28.3283 22.0001 27.4999 22.0001C26.6714 22.0001 25.9998 21.3285 25.9998 20.5V20H24V20.5C24 21.3285 23.3284 22.0001 22.5 22.0001C21.6715 22.0001 21 21.3285 21 20.5V20H19.5C18.6716 20 18 20.6717 18 21.5001V23.0001H41.9999V21.5001ZM35.9999 30.0003C32.6863 30.0003 30 32.6866 30 36.0004C30 39.3142 32.6863 42.0005 35.9999 42.0005C39.3136 42.0005 41.9999 39.3142 41.9999 36.0004C41.9964 32.6881 39.3122 30.0039 35.9999 30.0003ZM40.1999 35.6754L38.8149 36.9975L39.1414 38.8625C39.173 39.0399 39.154 39.2226 39.0866 39.3897C39.0192 39.5568 38.9062 39.7016 38.7605 39.8076C38.6124 39.9172 38.4366 39.983 38.253 39.9975C38.0694 40.012 37.8854 39.9746 37.722 39.8896L36 39.003L34.2785 39.8896C34.1151 39.9746 33.9311 40.012 33.7475 39.9975C33.5638 39.983 33.388 39.9172 33.24 39.8076C33.0942 39.7016 32.9812 39.5568 32.9139 39.3897C32.8465 39.2226 32.8275 39.0399 32.859 38.8625L33.1855 36.9975L31.8 35.6754C31.6682 35.5507 31.5744 35.3912 31.5294 35.2154C31.4845 35.0396 31.4902 34.8546 31.546 34.6819C31.602 34.5069 31.7065 34.3513 31.8473 34.2331C31.9881 34.115 32.1594 34.0392 32.3415 34.0144L34.2635 33.7409L35.1215 32.0378C35.2042 31.8761 35.3299 31.7403 35.4849 31.6455C35.6398 31.5507 35.8179 31.5005 35.9995 31.5005C36.1812 31.5005 36.3593 31.5507 36.5142 31.6455C36.6691 31.7403 36.7949 31.8761 36.8775 32.0378L37.7355 33.7409L39.6575 34.0144C39.8396 34.0392 40.011 34.115 40.1518 34.2331C40.2926 34.3513 40.397 34.5069 40.453 34.6819C40.509 34.8545 40.515 35.0394 40.4702 35.2153C40.4254 35.3911 40.3317 35.5507 40.1999 35.6754Z" fill="#9A8461"/>
<path d="M36.96 34.4244L35.996 32.5099L35.04 34.4244C35.0037 34.4964 34.9506 34.5585 34.8851 34.6055C34.8196 34.6525 34.7438 34.683 34.664 34.6944L32.5385 34.9969L34.0695 36.4594C34.1292 36.5165 34.1739 36.5874 34.1996 36.666C34.2252 36.7445 34.231 36.8282 34.2165 36.9095L33.8434 39.0375L35.7709 37.9985C35.8417 37.962 35.9203 37.943 35.9999 37.943C36.0796 37.943 36.1581 37.962 36.2289 37.9985L38.1789 39.0035L37.7829 36.9095C37.7683 36.8282 37.7741 36.7445 37.7997 36.666C37.8254 36.5874 37.8701 36.5165 37.9299 36.4594L39.4609 34.9969L37.3354 34.6944C37.2557 34.6829 37.1799 34.6524 37.1146 34.6054C37.0492 34.5584 36.9962 34.4963 36.96 34.4244Z" fill="#9A8461"/>
<path d="M45.9499 35.0709C45.9437 35.0403 45.9282 35.0124 45.9054 34.9911C45.8827 34.9698 45.8538 34.9561 45.8229 34.9519L44.4274 34.7234C44.3276 34.7069 44.2351 34.6606 44.1622 34.5906C44.0893 34.5205 44.0393 34.4299 44.0189 34.3309C43.8111 33.326 43.4145 32.3697 42.8499 31.5128C42.7946 31.4285 42.7662 31.3294 42.7682 31.2285C42.7703 31.1277 42.8028 31.0298 42.8615 30.9478L43.6854 29.7978C43.7055 29.7725 43.7171 29.7416 43.7186 29.7094C43.7201 29.6772 43.7115 29.6453 43.694 29.6183C43.5001 29.3796 43.293 29.1521 43.0735 28.9368C42.8355 28.6988 42.603 28.4868 42.3785 28.3033C42.3519 28.2871 42.321 28.2796 42.2901 28.2817C42.2591 28.2839 42.2295 28.2956 42.2055 28.3152L41.0555 29.1403C40.9735 29.1989 40.8756 29.2314 40.7748 29.2335C40.6739 29.2356 40.5748 29.2071 40.4905 29.1518C39.6336 28.5872 38.6774 28.1903 37.6725 27.9823C37.5736 27.9618 37.4831 27.9118 37.4131 27.8388C37.3432 27.7659 37.2969 27.6735 37.2805 27.5738L37.05 26.1782C37.0461 26.1465 37.0321 26.1169 37.0102 26.0937C36.9882 26.0705 36.9594 26.0549 36.928 26.0492C36.3095 25.9827 35.6856 25.9827 35.067 26.0492C35.0372 26.0561 35.0102 26.072 34.9896 26.0947C34.9691 26.1174 34.9559 26.1458 34.952 26.1762L34.7235 27.5717C34.7071 27.6715 34.6609 27.7639 34.5909 27.8368C34.5209 27.9098 34.4305 27.9598 34.3315 27.9802C33.3263 28.1883 32.3697 28.5854 31.5125 29.1503C31.4282 29.2056 31.3291 29.234 31.2283 29.232C31.1274 29.2299 31.0296 29.1974 30.9476 29.1387L29.7976 28.3147C29.7716 28.2936 29.7394 28.2817 29.706 28.281C29.6726 28.2803 29.6399 28.2907 29.6131 28.3107C29.3975 28.4872 29.1655 28.6982 28.9331 28.9307C28.7103 29.1488 28.5003 29.3796 28.3041 29.6218C28.2883 29.6483 28.2809 29.6791 28.2828 29.71C28.2848 29.7408 28.296 29.7704 28.3151 29.7947L29.1406 30.9448C29.1993 31.0268 29.2318 31.1247 29.2338 31.2255C29.2359 31.3263 29.2074 31.4254 29.1521 31.5098C28.5876 32.3667 28.1908 33.323 27.9826 34.3278C27.9622 34.4269 27.9123 34.5174 27.8393 34.5875C27.7664 34.6576 27.6739 34.7039 27.5741 34.7203L26.1796 34.9488C26.1483 34.9528 26.1189 34.9666 26.0959 34.9883C26.0728 35.0099 26.0571 35.0383 26.0511 35.0693C25.9848 35.6881 25.9848 36.3122 26.0511 36.9309C26.0587 36.9605 26.0749 36.9872 26.0976 37.0076C26.1202 37.0281 26.1484 37.0414 26.1786 37.0459L27.5736 37.2744C27.6734 37.2909 27.7659 37.3372 27.8388 37.4072C27.9118 37.4773 27.9617 37.5679 27.9821 37.6669C28.1895 38.6727 28.5858 39.63 29.1501 40.488C29.2054 40.5724 29.2339 40.6715 29.2319 40.7723C29.2298 40.8731 29.1973 40.971 29.1386 41.053L28.3146 42.2031C28.2934 42.229 28.2814 42.2613 28.2807 42.2949C28.28 42.3284 28.2905 42.3612 28.3106 42.3881C28.4856 42.6021 28.6971 42.8346 28.9311 43.0686C29.1346 43.2721 29.3561 43.4731 29.6276 43.7021C29.6538 43.7161 29.6836 43.722 29.7131 43.7191C29.7427 43.7161 29.7707 43.7045 29.7936 43.6856L30.9471 42.8606C31.0291 42.8019 31.127 42.7694 31.2278 42.7673C31.3286 42.7653 31.4277 42.7938 31.5121 42.8491C32.3689 43.4137 33.3252 43.8106 34.33 44.0186C34.429 44.0391 34.5194 44.0891 34.5894 44.162C34.6594 44.2349 34.7056 44.3273 34.722 44.4271L34.9505 45.8216C34.9545 45.8531 34.9684 45.8825 34.9901 45.9056C35.0119 45.9286 35.0404 45.9443 35.0715 45.9501C35.6901 46.0166 36.314 46.0166 36.9325 45.9501C36.9625 45.9434 36.9897 45.9277 37.0104 45.9051C37.0311 45.8825 37.0445 45.8541 37.0485 45.8236L37.277 44.4281C37.2934 44.3284 37.3397 44.2359 37.4096 44.163C37.4796 44.0901 37.5701 44.0401 37.669 44.0196C38.674 43.8118 39.6305 43.4151 40.4875 42.8506C40.5719 42.7953 40.671 42.7668 40.7718 42.7688C40.8726 42.7709 40.9705 42.8034 41.0525 42.8621L42.2025 43.6856C42.2286 43.7065 42.2608 43.7183 42.2943 43.7191C42.3277 43.7199 42.3605 43.7097 42.3875 43.6901C42.6405 43.4761 42.8625 43.2751 43.0685 43.0696C43.3015 42.8356 43.5135 42.6026 43.6971 42.3786C43.7124 42.3531 43.7199 42.3236 43.7185 42.2939C43.7171 42.2641 43.7068 42.2355 43.689 42.2116L42.86 41.0535C42.8013 40.9715 42.7688 40.8737 42.7668 40.7728C42.7647 40.672 42.7932 40.5729 42.8485 40.4885C43.4132 39.6317 43.81 38.6754 44.018 37.6705C44.0384 37.5714 44.0884 37.4809 44.1613 37.4108C44.2342 37.3407 44.3267 37.2944 44.4265 37.278L45.821 37.0495C45.8522 37.0446 45.8812 37.0304 45.9041 37.0087C45.9271 36.987 45.9429 36.9588 45.9495 36.9279C45.9823 36.6199 45.9991 36.3103 46 36.0004C45.9996 35.6899 45.9829 35.3797 45.9499 35.0709ZM35.9999 43.0006C32.134 43.0006 29 39.8665 29 36.0004C29 32.1343 32.134 29.0003 35.9999 29.0003C39.8659 29.0003 42.9999 32.1343 42.9999 36.0004C42.9958 39.8648 39.8642 42.9965 35.9999 43.0006Z" fill="#9A8461"/>
</svg>
