<svg width="64" height="64" viewBox="0 0 64 64" fill="none" xmlns="http://www.w3.org/2000/svg">
<rect width="64" height="64" rx="32" fill="#FFFFFD" fill-opacity="0.75"/>
<rect x="0.5" y="0.5" width="63" height="63" rx="31.5" stroke="#FFFFFD" stroke-opacity="0.5"/>
<path d="M41.3332 27.9998C41.3332 29.9332 40.7598 31.7065 39.7732 33.1865C38.3332 35.3199 36.0532 36.8265 33.3998 37.2132C32.9465 37.2932 32.4798 37.3332 31.9998 37.3332C31.5198 37.3332 31.0532 37.2932 30.5998 37.2132C27.9465 36.8265 25.6665 35.3199 24.2265 33.1865C23.2398 31.7065 22.6665 29.9332 22.6665 27.9998C22.6665 22.8398 26.8398 18.6665 31.9998 18.6665C37.1598 18.6665 41.3332 22.8398 41.3332 27.9998Z" fill="#9A8461" stroke="#E6E0D6" stroke-width="2"/>
<path d="M44.3333 40.6269L42.1333 41.1469C41.6399 41.2669 41.2533 41.6402 41.1466 42.1335L40.6799 44.0935C40.4266 45.1602 39.0666 45.4802 38.3599 44.6402L31.9999 37.3335L25.6399 44.6535C24.9333 45.4935 23.5733 45.1735 23.3199 44.1069L22.8533 42.1468C22.7333 41.6535 22.3466 41.2669 21.8666 41.1602L19.6666 40.6402C18.6533 40.4002 18.2933 39.1335 19.0266 38.4002L24.2266 33.2002C25.6666 35.3335 27.9466 36.8402 30.5999 37.2269C31.0533 37.3069 31.5199 37.3469 31.9999 37.3469C32.4799 37.3469 32.9466 37.3069 33.3999 37.2269C36.0533 36.8402 38.3333 35.3335 39.7733 33.2002L44.9733 38.4002C45.7066 39.1202 45.3466 40.3869 44.3333 40.6269Z" fill="#9A8461"/>
<path d="M32.7731 23.9735L33.5598 25.5468C33.6665 25.7602 33.9465 25.9735 34.1998 26.0135L35.6265 26.2535C36.5331 26.4002 36.7465 27.0668 36.0931 27.7202L34.9865 28.8268C34.7998 29.0135 34.6931 29.3735 34.7598 29.6402L35.0798 31.0135C35.3331 32.0935 34.7598 32.5201 33.7998 31.9468L32.4665 31.1601C32.2265 31.0135 31.8265 31.0135 31.5865 31.1601L30.2531 31.9468C29.2931 32.5068 28.7198 32.0935 28.9731 31.0135L29.2931 29.6402C29.3465 29.3868 29.2531 29.0135 29.0665 28.8268L27.9598 27.7202C27.3065 27.0668 27.5198 26.4135 28.4265 26.2535L29.8531 26.0135C30.0931 25.9735 30.3731 25.7602 30.4798 25.5468L31.2665 23.9735C31.6531 23.1202 32.3465 23.1202 32.7731 23.9735Z" fill="#E6E0D6"/>
</svg>
