<svg width="297" height="60" viewBox="0 0 297 60" fill="none" xmlns="http://www.w3.org/2000/svg">
<path d="M71.2212 51.0259V39.5928H77.2574V40.8355H72.582V44.1142H77.2574V45.3781H72.582V49.762H77.2574V51.0259H71.2212Z" fill="#9A8461"/>
<path d="M82.4307 51.0261V39.1382L90.8072 48.2762V39.593H92.1044V51.4756L83.7279 42.438V51.0314H82.4307V51.0261Z" fill="#9A8461"/>
<path d="M99.7127 51.0259V40.8884H96.4775V39.5928H104.314V40.8884H101.089V51.0259H99.7127Z" fill="#9A8461"/>
<path d="M108.693 51.0259V39.5928H114.729V40.8355H110.054V44.1142H114.729V45.3781H110.054V49.762H114.729V51.0259H108.693Z" fill="#9A8461"/>
<path d="M119.908 51.0259V39.5928H122.598C123.365 39.5928 123.927 39.6351 124.281 39.7197C124.636 39.8043 124.954 39.9524 125.224 40.1586C125.563 40.423 125.827 40.7773 126.013 41.2268C126.198 41.6763 126.293 42.1681 126.293 42.7075C126.293 43.6435 126.034 44.3574 125.51 44.844C124.985 45.3305 124.218 45.5737 123.206 45.5737H122.963L127.336 51.0259H125.61L121.433 45.5737H121.237V51.0259H119.908ZM121.237 40.7403V44.569H122.275C123.339 44.569 124.048 44.4315 124.408 44.1565C124.768 43.8815 124.948 43.4056 124.948 42.7234C124.948 41.9883 124.763 41.4754 124.392 41.1792C124.022 40.8831 123.318 40.7403 122.275 40.7403H121.237Z" fill="#9A8461"/>
<path d="M133.346 51.0259V40.8884H130.111V39.5928H137.947V40.8884H134.723V51.0259H133.346Z" fill="#9A8461"/>
<path d="M144.783 39.1382L149.993 51.0261H148.516L147.028 47.52H142.554L141.066 51.0261H139.588L144.783 39.1382ZM144.783 42.1472L142.961 46.3566H146.604L144.783 42.1472Z" fill="#9A8461"/>
<path d="M154.054 51.0259V39.5928H155.415V51.0259H154.054Z" fill="#9A8461"/>
<path d="M161.054 51.0261V39.1382L169.431 48.2762V39.593H170.728V51.4756L162.351 42.438V51.0314H161.054V51.0261Z" fill="#9A8461"/>
<path d="M181.667 51.4703L178.109 43.2524L176.668 51.0261H175.339L177.664 39.1382L181.667 48.5988L185.67 39.1382L187.994 51.0261H186.665L185.209 43.2524L181.667 51.4703Z" fill="#9A8461"/>
<path d="M192.617 51.0259V39.5928H198.653V40.8355H193.977V44.1142H198.653V45.3781H193.977V49.762H198.653V51.0259H192.617Z" fill="#9A8461"/>
<path d="M203.831 51.0261V39.1382L212.208 48.2762V39.593H213.505V51.4756L205.128 42.438V51.0314H203.831V51.0261Z" fill="#9A8461"/>
<path d="M221.109 51.0259V40.8884H217.874V39.5928H225.71V40.8884H222.485V51.0259H221.109Z" fill="#9A8461"/>
<path d="M36.4552 22.1682C36.4234 22.0307 36.3705 21.6446 36.2964 21.0206C36.2328 20.4971 36.1746 20.0688 36.1269 19.725C36.0528 20.1322 35.9469 20.5394 35.8145 20.9466C35.6822 21.3538 35.5127 21.7716 35.3062 22.1946L30.615 31.7345L25.9237 21.999C25.7278 21.5971 25.5584 21.211 25.4154 20.8356C25.2724 20.4601 25.1507 20.0899 25.0448 19.7197C25.0342 20.0952 25.0077 20.4865 24.9547 20.899C24.9018 21.3115 24.8224 21.7398 24.7165 22.1893L22.7944 31.0048H20.1152L24.3511 12.3427L29.6407 23.6436C29.7201 23.8234 29.8472 24.1195 30.0114 24.5373C30.1808 24.9551 30.382 25.468 30.6203 26.0762C30.7897 25.5632 31.0597 24.9128 31.4304 24.1195C31.531 23.908 31.5998 23.7441 31.6528 23.6277L36.8206 12.3374L41.1571 30.9995H38.4514L36.4658 22.1576L36.4552 22.1682Z" fill="#332F2F"/>
<path d="M48.0088 31.01V13.1094H50.921V31.0152H48.0088V31.01Z" fill="#332F2F"/>
<path d="M59.5991 31.0101V12.4009L70.9884 23.3475C71.3008 23.6595 71.6132 23.9873 71.9309 24.3364C72.2486 24.6854 72.5822 25.082 72.9369 25.5209V13.1095H75.632V31.7081L64.0098 20.5659C63.6974 20.2644 63.4008 19.9471 63.1096 19.614C62.8184 19.2808 62.5431 18.9265 62.2836 18.5616V31.0101H59.6044H59.5991Z" fill="#332F2F"/>
<path d="M84.2783 31.01V13.1094H87.1905V31.0152H84.2783V31.01Z" fill="#332F2F"/>
<path d="M94.8418 27.4299L97.1662 26.3564C97.3886 27.1549 97.791 27.763 98.3788 28.1861C98.9665 28.6039 99.7184 28.8154 100.634 28.8154C101.497 28.8154 102.186 28.5774 102.699 28.0962C103.208 27.615 103.467 26.9698 103.467 26.166C103.467 25.1137 102.593 24.1776 100.846 23.3527C100.603 23.2311 100.412 23.1412 100.285 23.083C98.3099 22.1205 96.9915 21.248 96.335 20.4706C95.6784 19.6932 95.3501 18.7414 95.3501 17.615C95.3501 16.1554 95.8478 14.9709 96.838 14.0666C97.8281 13.1623 99.1306 12.7075 100.74 12.7075C102.064 12.7075 103.171 12.9614 104.06 13.469C104.95 13.9767 105.564 14.7118 105.908 15.6636L103.631 16.8376C103.271 16.2771 102.879 15.8646 102.451 15.6002C102.022 15.341 101.529 15.2088 100.973 15.2088C100.19 15.2088 99.5648 15.4151 99.1042 15.8223C98.6435 16.2295 98.4105 16.7742 98.4105 17.4616C98.4105 18.5351 99.4219 19.5399 101.45 20.4706C101.603 20.5446 101.725 20.6028 101.815 20.6398C103.589 21.4542 104.801 22.2527 105.463 23.0301C106.125 23.8075 106.453 24.7805 106.453 25.9492C106.453 27.6467 105.919 28.9899 104.849 29.9894C103.78 30.9889 102.334 31.4859 100.513 31.4859C98.9877 31.4859 97.7328 31.1369 96.7585 30.4336C95.7843 29.7303 95.1436 28.7308 94.8418 27.4246V27.4299Z" fill="#332F2F"/>
<path d="M119.913 15.579V31.01H117.001V15.579H112.235V13.1094H124.652V15.579H119.913Z" fill="#332F2F"/>
<path d="M134.103 23.0036V31.0152H131.371V13.1094H135.438C136.629 13.1094 137.556 13.1887 138.212 13.3421C138.869 13.4954 139.43 13.7545 139.896 14.1141C140.452 14.5478 140.881 15.103 141.182 15.7905C141.484 16.478 141.638 17.2236 141.638 18.038C141.638 19.4711 141.288 20.5975 140.595 21.4066C139.901 22.2157 138.874 22.7075 137.524 22.8661L143.698 31.01H140.404L134.442 22.9983H134.114L134.103 23.0036ZM134.283 20.7403H134.807C136.348 20.7403 137.375 20.5605 137.878 20.2009C138.387 19.8413 138.636 19.2067 138.636 18.2918C138.636 17.3029 138.366 16.6102 137.82 16.2083C137.275 15.8064 136.269 15.6054 134.802 15.6054H134.278V20.7403H134.283Z" fill="#332F2F"/>
<path d="M153.324 31.01V22.8185L147.288 13.1094H150.348L154.107 19.1855C154.197 19.3389 154.309 19.5451 154.446 19.799C154.579 20.0528 154.716 20.3278 154.854 20.6186C154.97 20.3331 155.087 20.0634 155.214 19.8148C155.341 19.561 155.473 19.3283 155.611 19.1168L159.466 13.1147H162.378L156.204 22.8238V31.0152H153.313L153.324 31.01Z" fill="#332F2F"/>
<path d="M195.264 22.0941C195.264 23.3685 195.026 24.569 194.549 25.7006C194.073 26.8323 193.374 27.8424 192.463 28.7361C191.542 29.6245 190.499 30.3067 189.339 30.7773C188.18 31.248 186.962 31.4859 185.691 31.4859C184.42 31.4859 183.171 31.248 182.001 30.772C180.83 30.2961 179.793 29.6192 178.898 28.7361C177.982 27.8477 177.288 26.8429 176.817 25.7165C176.346 24.5901 176.107 23.3844 176.107 22.0994C176.107 20.8143 176.346 19.6139 176.817 18.4822C177.288 17.3506 177.982 16.3352 178.898 15.4362C179.814 14.5478 180.846 13.8709 182.006 13.4056C183.165 12.9402 184.394 12.7075 185.691 12.7075C186.988 12.7075 188.201 12.9402 189.36 13.4056C190.515 13.8709 191.553 14.5478 192.463 15.4362C193.379 16.3405 194.073 17.3611 194.549 18.4981C195.026 19.6351 195.264 20.8355 195.264 22.0994V22.0941ZM192.23 22.0941C192.23 21.1898 192.066 20.3278 191.733 19.5134C191.404 18.6991 190.928 17.9746 190.308 17.3347C189.705 16.7054 189.006 16.2242 188.206 15.8857C187.412 15.5473 186.57 15.3781 185.691 15.3781C184.812 15.3781 183.97 15.5473 183.176 15.8804C182.382 16.2136 181.672 16.7001 181.053 17.3347C180.433 17.964 179.957 18.6832 179.634 19.4976C179.306 20.312 179.141 21.1792 179.141 22.0888C179.141 22.9984 179.306 23.8498 179.634 24.6589C179.962 25.468 180.433 26.1872 181.053 26.8217C181.672 27.4563 182.377 27.9428 183.171 28.276C183.965 28.6092 184.802 28.7784 185.691 28.7784C186.581 28.7784 187.396 28.6092 188.185 28.276C188.974 27.9428 189.683 27.4563 190.308 26.8217C190.928 26.1872 191.404 25.4627 191.733 24.6536C192.061 23.8445 192.23 22.9878 192.23 22.0941Z" fill="#332F2F"/>
<path d="M203.096 31.01V13.1094H213.098V15.579H206.008V20.0422H213.098V22.5964H206.008V31.01H203.096Z" fill="#332F2F"/>
<path d="M228.818 31.01V13.1094H232.747C235.304 13.1094 237.099 13.2363 238.142 13.4954C239.185 13.7545 240.096 14.1829 240.88 14.7857C241.917 15.579 242.701 16.5943 243.236 17.8317C243.771 19.0692 244.035 20.4864 244.035 22.0782C244.035 23.6699 243.765 25.0766 243.236 26.3035C242.701 27.5303 241.917 28.5457 240.88 29.3442C240.096 29.947 239.206 30.3807 238.206 30.6345C237.205 30.8936 235.648 31.0205 233.536 31.0205H228.823L228.818 31.01ZM231.735 28.3817H234.187C235.532 28.3817 236.543 28.2918 237.216 28.112C237.888 27.9322 238.476 27.6308 238.973 27.2077C239.651 26.6313 240.159 25.9068 240.498 25.0501C240.837 24.1882 241.007 23.1887 241.007 22.0464C241.007 20.9042 240.837 19.9047 240.498 19.0427C240.159 18.1808 239.651 17.4616 238.973 16.8852C238.465 16.4621 237.862 16.1607 237.157 15.9809C236.453 15.8011 235.346 15.7112 233.843 15.7112H231.735V28.3817Z" fill="#332F2F"/>
<path d="M251.724 27.7576C252.025 28.1172 252.317 28.3763 252.592 28.5403C252.867 28.7042 253.164 28.7835 253.471 28.7835C254.043 28.7835 254.445 28.5932 254.678 28.223C254.911 27.8475 255.028 27.1495 255.028 26.1289V13.104H257.919V27.0702C257.919 28.5879 257.585 29.7037 256.913 30.4123C256.245 31.1262 255.197 31.4805 253.778 31.4805C252.994 31.4805 252.285 31.3272 251.655 31.0257C251.025 30.7243 250.426 30.2537 249.86 29.6191L251.724 27.7471V27.7576Z" fill="#332F2F"/>
<path d="M265.209 27.4299L267.534 26.3564C267.756 27.1549 268.159 27.763 268.746 28.1861C269.334 28.6039 270.086 28.8154 271.002 28.8154C271.865 28.8154 272.553 28.5774 273.067 28.0962C273.575 27.615 273.835 26.9698 273.835 26.166C273.835 25.1137 272.961 24.1776 271.214 23.3527C270.97 23.2311 270.78 23.1412 270.653 23.083C268.678 22.1205 267.359 21.248 266.703 20.4706C266.046 19.6932 265.718 18.7414 265.718 17.615C265.718 16.1554 266.215 14.9709 267.206 14.0666C268.196 13.1623 269.498 12.7075 271.108 12.7075C272.432 12.7075 273.538 12.9614 274.428 13.469C275.317 13.9767 275.932 14.7118 276.276 15.6636L273.999 16.8376C273.639 16.2771 273.247 15.8646 272.818 15.6002C272.389 15.341 271.897 15.2088 271.341 15.2088C270.557 15.2088 269.932 15.4151 269.472 15.8223C269.011 16.2295 268.778 16.7742 268.778 17.4616C268.778 18.5351 269.79 19.5399 271.817 20.4706C271.971 20.5446 272.093 20.6028 272.183 20.6398C273.957 21.4542 275.169 22.2527 275.831 23.0301C276.493 23.8075 276.821 24.7805 276.821 25.9492C276.821 27.6467 276.286 28.9899 275.217 29.9894C274.147 30.9889 272.702 31.4859 270.88 31.4859C269.355 31.4859 268.1 31.1369 267.126 30.4336C266.152 29.7303 265.511 28.7308 265.209 27.4246V27.4299Z" fill="#332F2F"/>
<path d="M11.3892 32.9718L13.9148 32.9507V34.3785L9.52539 34.3996V9.46045H13.9148V10.9887H11.3892V32.9718Z" fill="#9A8461"/>
<path d="M285.823 10.8829L283.297 10.904V9.47623L287.686 9.45508V34.3943H283.297V32.866H285.823V10.8829Z" fill="#9A8461"/>
</svg>
