<svg width="32" height="32" viewBox="0 0 32 32" fill="none" xmlns="http://www.w3.org/2000/svg">
<path fill-rule="evenodd" clip-rule="evenodd" d="M16.1756 0.867008L17.0516 3.17413C17.0638 3.20758 17.0857 3.23662 17.1145 3.25755C17.1433 3.27848 17.1777 3.29034 17.2133 3.29163L19.6782 3.41182C19.8458 3.41995 19.9144 3.63113 19.7836 3.73632L17.8601 5.28238C17.8321 5.30434 17.8112 5.33416 17.8002 5.36803C17.7892 5.40189 17.7886 5.43827 17.7984 5.47251L18.4458 7.85382C18.4899 8.01576 18.3103 8.14626 18.1698 8.05438L16.1051 6.70276C16.0755 6.6829 16.0407 6.67229 16.0051 6.67229C15.9695 6.67229 15.9347 6.6829 15.9052 6.70276L13.8404 8.05438C13.7 8.14632 13.5204 8.01582 13.5644 7.85382L14.2118 5.47245C14.2216 5.4382 14.2209 5.40184 14.2099 5.36798C14.1989 5.33412 14.1781 5.3043 14.1501 5.28232L12.2265 3.73626C12.0957 3.63113 12.1643 3.41995 12.3319 3.41176L14.7968 3.29157C14.8324 3.29029 14.8668 3.27842 14.8956 3.25749C14.9244 3.23656 14.9463 3.20752 14.9585 3.17407L15.8344 0.866945C15.8937 0.711008 16.1164 0.711008 16.1756 0.867008ZM16.0001 9.94288C20.4436 9.94288 24.0458 13.5451 24.0458 17.9887C24.0458 22.4323 20.4436 26.0345 16.0001 26.0345C11.5565 26.0345 7.95425 22.4323 7.95425 17.9887C7.95425 13.5451 11.5564 9.94288 16.0001 9.94288ZM2.32975 22.3544C2.6197 22.354 2.90555 22.4228 3.16356 22.5551L3.16963 18.0046C3.16966 17.8998 3.20272 17.7978 3.26409 17.7129C3.32547 17.628 3.41204 17.5646 3.5115 17.5318C3.61096 17.4989 3.71825 17.4982 3.81811 17.5299C3.91797 17.5615 4.00532 17.6238 4.06775 17.7079C4.22362 17.9171 4.433 18.1094 4.63725 18.2976C5.41994 19.0183 6.14913 19.6899 5.43687 21.5065C5.38745 21.628 5.29217 21.7252 5.17164 21.777C5.05112 21.8288 4.91504 21.8311 4.79285 21.7833C4.67067 21.7356 4.57219 21.6417 4.51873 21.5219C4.46527 21.4021 4.46112 21.266 4.50719 21.1432C4.9095 20.1171 4.59562 19.644 4.16406 19.2223C4.16188 20.8762 4.15938 22.5302 4.15938 24.1841C4.15938 25.1946 3.34013 26.0138 2.32969 26.0138C1.31925 26.0138 0.5 25.1946 0.5 24.1841C0.500063 23.1738 1.31931 22.3544 2.32975 22.3544ZM6.61156 27.7913C6.35356 27.659 6.0677 27.5902 5.77775 27.5906C4.76737 27.5906 3.94806 28.4099 3.94806 29.4203C3.94806 30.4308 4.76731 31.25 5.77775 31.25C6.78819 31.25 7.60744 30.4308 7.60744 29.4203C7.60744 27.7664 7.60987 26.1124 7.61212 24.4584C8.04369 24.8801 8.3575 25.3533 7.95525 26.3794C7.90918 26.5022 7.91333 26.6382 7.96679 26.758C8.02025 26.8778 8.11873 26.9718 8.24092 27.0195C8.36311 27.0673 8.49918 27.065 8.61971 27.0132C8.74023 26.9614 8.83551 26.8642 8.88494 26.7427C9.59719 24.9261 8.868 24.2546 8.08531 23.5338C7.88669 23.3508 7.67756 23.1612 7.51581 22.9441C7.45339 22.86 7.36603 22.7977 7.26617 22.766C7.16631 22.7344 7.05903 22.7351 6.95957 22.7679C6.86011 22.8008 6.77353 22.8642 6.71216 22.9491C6.65078 23.0339 6.61772 23.136 6.61769 23.2408L6.61156 27.7913ZM29.6381 25.5236C28.6099 25.5236 27.7763 26.3573 27.7763 27.3855C27.7763 28.4137 28.6099 29.2473 29.6381 29.2473C30.6663 29.2473 31.4999 28.4137 31.4999 27.3855L31.4993 19.9948C31.4992 19.6613 31.1751 19.4174 30.8516 19.5182L24.428 21.5225C24.3194 21.5493 24.2229 21.6116 24.154 21.6996C24.085 21.7877 24.0475 21.8962 24.0475 22.0081V27.7374C23.7816 27.5983 23.4858 27.5259 23.1857 27.5263C22.1575 27.5263 21.3239 28.36 21.3239 29.3882C21.3239 30.4164 22.1575 31.25 23.1857 31.25C24.2139 31.25 25.0476 30.4164 25.0476 29.3882V24.8023L30.5002 23.1009V25.7348C30.2342 25.5957 29.9383 25.5232 29.6381 25.5236ZM16.0001 16.7545C15.3184 16.7545 14.7659 17.3071 14.7659 17.9887C14.7659 18.6703 15.3184 19.2229 16.0001 19.2229C16.6817 19.2229 17.2342 18.6703 17.2342 17.9887C17.2342 17.3071 16.6816 16.7545 16.0001 16.7545ZM20.887 19.5156C20.3889 21.1118 19.1232 22.3776 17.527 22.8756C17.4006 22.915 17.295 23.003 17.2335 23.1202C17.172 23.2374 17.1595 23.3742 17.1989 23.5006C17.2382 23.627 17.3262 23.7326 17.4434 23.7941C17.5606 23.8557 17.6975 23.8681 17.8239 23.8288C19.7378 23.2316 21.2429 21.7264 21.8401 19.8125C21.8596 19.7499 21.8666 19.6841 21.8607 19.6188C21.8547 19.5536 21.836 19.4901 21.8055 19.4321C21.775 19.374 21.7334 19.3225 21.6831 19.2806C21.6327 19.2386 21.5746 19.207 21.512 19.1875C21.4494 19.168 21.3836 19.161 21.3183 19.167C21.253 19.1729 21.1896 19.1917 21.1315 19.2221C21.0735 19.2526 21.022 19.2942 20.9801 19.3446C20.9381 19.3949 20.9065 19.453 20.887 19.5156ZM11.1131 16.4617C11.6112 14.8656 12.877 13.5998 14.4731 13.1018C14.5995 13.0624 14.7051 12.9744 14.7666 12.8572C14.8282 12.74 14.8406 12.6032 14.8013 12.4768C14.7619 12.3504 14.6739 12.2448 14.5567 12.1833C14.4395 12.1217 14.3026 12.1093 14.1763 12.1486C12.2624 12.7458 10.7572 14.251 10.16 16.1648C10.1206 16.2912 10.1331 16.4281 10.1946 16.5453C10.2562 16.6625 10.3617 16.7505 10.4881 16.7898C10.6145 16.8292 10.7514 16.8167 10.8686 16.7552C10.9858 16.6937 11.0738 16.5881 11.1131 16.4617ZM16.0001 14.2741C13.9487 14.2741 12.2855 15.9373 12.2855 17.9887C12.2855 20.0401 13.9487 21.7033 16.0001 21.7033C18.0514 21.7033 19.7146 20.0401 19.7146 17.9887C19.7146 15.9373 18.0514 14.2741 16.0001 14.2741ZM16.0001 15.2741C14.5008 15.2741 13.2855 16.4894 13.2855 17.9887C13.2855 19.4879 14.5008 20.7033 16.0001 20.7033C17.4994 20.7033 18.7146 19.488 18.7146 17.9887C18.7146 16.4894 17.4993 15.2741 16.0001 15.2741ZM27.3202 5.6387C27.3887 5.48651 27.2312 5.32901 27.079 5.39745L24.8283 6.40945C24.796 6.42445 24.7599 6.42949 24.7248 6.42392C24.6896 6.41836 24.6569 6.40244 24.6308 6.3782L22.8029 4.7202C22.6786 4.60745 22.4808 4.70826 22.4989 4.87507L22.7659 7.32838C22.7701 7.36373 22.7638 7.39955 22.7476 7.43127C22.7315 7.463 22.7062 7.48919 22.6751 7.50651L20.5334 8.73263C20.3878 8.81601 20.4225 9.03532 20.5868 9.06957L23.0025 9.57382C23.0374 9.58066 23.0695 9.59776 23.0947 9.62293C23.1199 9.6481 23.137 9.6802 23.1438 9.71513L23.6481 12.1309C23.6824 12.2952 23.9017 12.3299 23.9851 12.1843L25.2112 10.0426C25.2285 10.0115 25.2547 9.98628 25.2864 9.97012C25.3181 9.95396 25.354 9.94761 25.3893 9.95188L27.8426 10.2188C28.0095 10.2369 28.1103 10.0391 27.9975 9.91482L26.3396 8.08695C26.3153 8.06087 26.2994 8.02816 26.2938 7.99299C26.2883 7.95782 26.2933 7.9218 26.3083 7.88951L27.3202 5.6387ZM4.92112 5.37332C4.76894 5.30488 4.61144 5.46245 4.67987 5.61457L5.69187 7.86532C5.70688 7.89761 5.71192 7.93364 5.70635 7.9688C5.70079 8.00397 5.68487 8.03668 5.66062 8.06276L4.00262 9.89063C3.88987 10.0149 3.99069 10.2128 4.1575 10.1946L6.61081 9.9277C6.64615 9.92341 6.68197 9.92975 6.71368 9.94592C6.7454 9.96208 6.77158 9.98733 6.78888 10.0184L8.015 12.1601C8.09838 12.3058 8.31769 12.2711 8.35194 12.1068L8.85619 9.69101C8.86305 9.65607 8.88015 9.62396 8.90533 9.59878C8.93051 9.5736 8.96262 9.55649 8.99756 9.54963L11.4133 9.04538C11.5776 9.01107 11.6123 8.79176 11.4667 8.70838L9.325 7.48238C9.29389 7.46508 9.26865 7.4389 9.25248 7.40718C9.23632 7.37547 9.22997 7.33966 9.23425 7.30432L9.50119 4.85101C9.51931 4.68413 9.3215 4.58332 9.19719 4.69613L7.36931 6.35413C7.34324 6.37838 7.31053 6.39431 7.27536 6.39987C7.24019 6.40544 7.20416 6.40039 7.17188 6.38538L4.92112 5.37332Z" fill="#9A8461"/>
</svg>
