<svg width="49" height="49" viewBox="0 0 49 49" fill="none" xmlns="http://www.w3.org/2000/svg">
<rect x="0.5" y="0.5" width="48" height="48" rx="24" fill="url(#paint0_linear_18_566)"/>
<rect x="0.5" y="0.5" width="48" height="48" rx="24" stroke="black" stroke-opacity="0.12" stroke-linejoin="bevel"/>
<g clip-path="url(#clip0_18_566)">
<path d="M20.8606 13.2894C18.4626 14.1213 16.3946 15.7002 14.9603 17.7943C13.526 19.8884 12.801 22.3872 12.8919 24.9237C12.9827 27.4603 13.8846 29.9008 15.465 31.8869C17.0454 33.873 19.2211 35.3 21.6724 35.9582C23.6598 36.471 25.7419 36.4935 27.7399 36.0238C29.5499 35.6173 31.2233 34.7476 32.5962 33.5001C34.0251 32.162 35.0622 30.4597 35.5962 28.5763C36.1765 26.5282 36.2798 24.3743 35.8981 22.2801H24.7381V26.9094H31.2012C31.072 27.6478 30.7952 28.3525 30.3873 28.9814C29.9795 29.6102 29.4489 30.1504 28.8274 30.5694C28.0382 31.0915 27.1485 31.4428 26.2156 31.6007C25.2798 31.7747 24.32 31.7747 23.3843 31.6007C22.4359 31.4046 21.5387 31.0132 20.7499 30.4513C19.4827 29.5543 18.5312 28.2799 18.0312 26.8101C17.5227 25.3127 17.5227 23.6893 18.0312 22.1919C18.3871 21.1423 18.9755 20.1867 19.7524 19.3963C20.6415 18.4752 21.7672 17.8168 23.0058 17.4933C24.2445 17.1698 25.5484 17.1938 26.7743 17.5626C27.732 17.8565 28.6078 18.3702 29.3318 19.0626C30.0606 18.3376 30.7881 17.6107 31.5143 16.8819C31.8893 16.4901 32.2981 16.1169 32.6674 15.7157C31.5622 14.6872 30.265 13.8869 28.8499 13.3607C26.2731 12.425 23.4536 12.3999 20.8606 13.2894Z" fill="white"/>
<path d="M20.8607 13.2894C23.4536 12.3992 26.2731 12.4237 28.8501 13.3587C30.2654 13.8885 31.562 14.6927 32.6657 15.725C32.2907 16.1262 31.8951 16.5012 31.5126 16.8912C30.7851 17.6175 30.0582 18.3412 29.332 19.0625C28.6079 18.3701 27.7321 17.8565 26.7745 17.5625C25.5489 17.1924 24.2451 17.1671 23.0061 17.4893C21.7671 17.8114 20.6408 18.4686 19.7507 19.3887C18.9738 20.1791 18.3854 21.1348 18.0295 22.1844L14.1426 19.175C15.5338 16.416 17.9427 14.3057 20.8607 13.2894Z" fill="#E33629"/>
<path d="M13.1114 22.1563C13.3203 21.1209 13.6672 20.1182 14.1427 19.175L18.0295 22.1919C17.5211 23.6893 17.5211 25.3127 18.0295 26.81C16.7345 27.81 15.4389 28.815 14.1427 29.825C12.9523 27.4556 12.5893 24.756 13.1114 22.1563Z" fill="#F8BD00"/>
<path d="M24.7381 22.2781H35.8981C36.2799 24.3723 36.1766 26.5262 35.5963 28.5743C35.0623 30.4577 34.0252 32.16 32.5963 33.4981C31.3419 32.5193 30.0819 31.5481 28.8275 30.5693C29.4494 30.1498 29.9802 29.6091 30.3881 28.9796C30.796 28.35 31.0726 27.6446 31.2013 26.9056H24.7381C24.7363 25.3643 24.7381 23.8212 24.7381 22.2781Z" fill="#587DBD"/>
<path d="M14.1406 29.8251C15.4369 28.8251 16.7325 27.8201 18.0275 26.8101C18.5285 28.2804 19.4814 29.5549 20.75 30.4513C21.5413 31.0106 22.4404 31.3988 23.39 31.5913C24.3257 31.7653 25.2855 31.7653 26.2213 31.5913C27.1542 31.4334 28.0439 31.0821 28.8331 30.5601C30.0875 31.5388 31.3475 32.5101 32.6019 33.4888C31.2292 34.737 29.5558 35.6073 27.7456 36.0144C25.7476 36.4841 23.6655 36.4616 21.6781 35.9488C20.1063 35.5291 18.6381 34.7893 17.3656 33.7757C16.0187 32.7063 14.9187 31.3588 14.1406 29.8251Z" fill="#319F43"/>
</g>
<defs>
<linearGradient id="paint0_linear_18_566" x1="24.5" y1="0.5" x2="24.5" y2="48.5" gradientUnits="userSpaceOnUse">
<stop stop-color="white"/>
<stop offset="1" stop-color="#DBDBDB"/>
</linearGradient>
<clipPath id="clip0_18_566">
<rect width="24" height="24" fill="white" transform="translate(12.5 12.5)"/>
</clipPath>
</defs>
</svg>
