<svg width="16" height="16" viewBox="0 0 16 16" fill="none" xmlns="http://www.w3.org/2000/svg">
<path d="M8.78305 0.593165L10.1089 4.86395C10.2157 5.21753 10.536 5.45944 10.8831 5.45944H15.1809C15.9729 5.45944 16.3021 6.52016 15.6614 7.004L12.1822 9.64649C11.8975 9.8605 11.7729 10.2513 11.8886 10.6049L13.2144 14.8757C13.4636 15.6665 12.6004 16.3179 11.9597 15.834L8.48051 13.1915C8.19576 12.9775 7.80424 12.9775 7.51949 13.1915L4.04025 15.834C3.39957 16.3179 2.53644 15.6665 2.78559 14.8757L4.11144 10.6049C4.21822 10.2513 4.10254 9.8698 3.81779 9.64649L0.338555 7.004C-0.302123 6.52016 0.0271153 5.45944 0.819065 5.45944H5.11695C5.47288 5.45944 5.78432 5.21753 5.8911 4.86395L7.21695 0.593165C7.4661 -0.197722 8.525 -0.197722 8.77415 0.593165H8.78305Z" fill="#F79329"/>
</svg>
