<svg width="1440" height="943" viewBox="0 0 1440 943" fill="none" xmlns="http://www.w3.org/2000/svg">
<path d="M636.551 720.5V800.5H718.245V720.5H636.551Z" fill="white" fill-opacity="0.02"/>
<path d="M718.245 400.5H636.551V480.5H718.245V400.5Z" fill="white" fill-opacity="0.02"/>
<path d="M309.775 160.5V240.5H391.469V160.5H309.775Z" fill="white" fill-opacity="0.02"/>
<path d="M799.939 80.5V160.5H881.632V80.5H799.939Z" fill="white" fill-opacity="0.02"/>
<path d="M963.326 880.5V800.5H881.632V880.5H963.326Z" fill="white" fill-opacity="0.02"/>
<path d="M146.388 560.5V640.5H228.082V560.5H146.388Z" fill="white" fill-opacity="0.02"/>
<path d="M64.6939 80.5V160.5H146.388V80.5H64.6939Z" fill="white" fill-opacity="0.02"/>
<path d="M1371.8 640.5V720.5H1453.49V640.5H1371.8Z" fill="white" fill-opacity="0.02"/>
<path d="M-17 1201V1M64.6939 1201V160.5M64.6939 1V80.5M146.388 1201V640.5M146.388 1V80.5M228.082 1201V640.5M228.082 1V560.5M309.775 1201V240.5M309.775 1V160.5M391.469 1201V240.5M391.469 1V160.5M473.163 1201V1M554.857 1201V1M636.551 1201V800.5M636.551 1V400.5M718.245 1201V800.5M718.245 1V400.5M799.939 1201V160.5M799.939 1V80.5M881.632 1201V880.5M881.632 1V80.5M963.326 1201V880.5M963.326 1V800.5M1045.02 1201V1M1126.71 1201V1M1208.41 1201V1M1290.1 1201V1M1371.8 1201V720.5M1371.8 1V640.5M1453.49 1201V720.5M1453.49 1V640.5M-16.4894 0.5L1454 0.5M-16.4894 80.5H64.6939M1454 80.5H881.632M-16.4894 160.5H64.6939M1454 160.5H881.632M-16.4894 240.5H309.775M1454 240.5H391.469M-16.4894 320.5H1454M-16.4894 400.5H636.551M1454 400.5H718.245M-16.4894 480.5H636.551M1454 480.5H718.245M-16.4894 560.5H146.388M1454 560.5H228.082M-16.4894 640.5H146.388M1454 640.5H1453.49M-16.4894 720.5H636.551M1454 720.5H1453.49M-16.4894 800.5H636.551M1454 800.5H963.326M-16.4894 880.5H881.632M1454 880.5H963.326M-16.4894 960.5H1454M-16.4894 1040.5H1454M-16.4894 1120.5H1454M-16.4894 1200.5H1454M-16.4894 1280.5H1454M-16.4894 1360.5H1454M-16.4894 1440.5H1454M636.551 720.5V800.5M636.551 720.5H718.245M636.551 720.5V480.5M636.551 800.5H718.245M718.245 800.5V720.5M718.245 800.5H881.632M718.245 720.5V480.5M718.245 720.5H1371.8M718.245 400.5H636.551M718.245 400.5V480.5M636.551 400.5V480.5M636.551 480.5H718.245M309.775 160.5V240.5M309.775 160.5H391.469M309.775 160.5H146.388M309.775 240.5H391.469M391.469 240.5V160.5M391.469 160.5H799.939M799.939 80.5V160.5M799.939 80.5H881.632M799.939 80.5H146.388M799.939 160.5H881.632M881.632 160.5V80.5M881.632 160.5V800.5M963.326 880.5V800.5M963.326 880.5H881.632M963.326 800.5H881.632M881.632 800.5V880.5M146.388 560.5V640.5M146.388 560.5H228.082M146.388 560.5V160.5M146.388 640.5H228.082M228.082 640.5V560.5M228.082 640.5H1371.8M64.6939 80.5V160.5M64.6939 80.5H146.388M64.6939 160.5H146.388M146.388 160.5V80.5M1371.8 640.5V720.5M1371.8 640.5H1453.49M1371.8 720.5H1453.49M1453.49 720.5V640.5" stroke="white" stroke-opacity="0.05"/>
</svg>
